<mxfile host="app.diagrams.net" modified="2023-11-24T04:14:56.865Z" agent="Mozilla/5.0 (Macintosh; Intel Mac OS X 10_15_7) AppleWebKit/537.36 (KHTML, like Gecko) Chrome/119.0.0.0 Safari/537.36" etag="02NmrOdNb5X16IfOgZsZ" version="22.1.3" type="device" pages="3">
  <diagram id="-Fsm-Zb8NtQA3v9Cre14" name="Architecture Overview">
    <mxGraphModel dx="1128" dy="676" grid="0" gridSize="10" guides="1" tooltips="1" connect="1" arrows="1" fold="1" page="1" pageScale="1" pageWidth="850" pageHeight="1100" math="0" shadow="0">
      <root>
        <mxCell id="0" />
        <mxCell id="1" parent="0" />
        <mxCell id="SLdn9OUWIQRKfOFRABOn-5" value="" style="rounded=0;whiteSpace=wrap;html=1;fillColor=none;" parent="1" vertex="1">
          <mxGeometry x="290" y="96" width="500" height="215" as="geometry" />
        </mxCell>
        <mxCell id="SLdn9OUWIQRKfOFRABOn-28" value="" style="rounded=0;whiteSpace=wrap;html=1;fillColor=#dae8fc;strokeColor=#6c8ebf;" parent="1" vertex="1">
          <mxGeometry x="480" y="131" width="110" height="130" as="geometry" />
        </mxCell>
        <mxCell id="SLdn9OUWIQRKfOFRABOn-45" value="&lt;font style=&quot;font-size: 10px;&quot;&gt;User&lt;/font&gt;" style="text;html=1;strokeColor=none;fillColor=none;align=center;verticalAlign=middle;whiteSpace=wrap;rounded=0;" parent="1" vertex="1">
          <mxGeometry x="483.5" y="185.25" width="100" height="30" as="geometry" />
        </mxCell>
        <mxCell id="SLdn9OUWIQRKfOFRABOn-3" value="" style="rounded=0;whiteSpace=wrap;html=1;fillColor=none;" parent="1" vertex="1">
          <mxGeometry x="98" y="96" width="170" height="215" as="geometry" />
        </mxCell>
        <mxCell id="SLdn9OUWIQRKfOFRABOn-1" value="" style="shape=actor;whiteSpace=wrap;html=1;fillColor=#dae8fc;strokeColor=#6c8ebf;" parent="1" vertex="1">
          <mxGeometry x="40" y="121" width="27.33" height="41" as="geometry" />
        </mxCell>
        <mxCell id="SLdn9OUWIQRKfOFRABOn-4" value="Azure" style="text;html=1;strokeColor=none;fillColor=none;align=center;verticalAlign=middle;whiteSpace=wrap;rounded=0;" parent="1" vertex="1">
          <mxGeometry x="89" y="71" width="60" height="30" as="geometry" />
        </mxCell>
        <mxCell id="SLdn9OUWIQRKfOFRABOn-6" value="AWS" style="text;html=1;strokeColor=none;fillColor=none;align=center;verticalAlign=middle;whiteSpace=wrap;rounded=0;" parent="1" vertex="1">
          <mxGeometry x="279" y="71" width="60" height="30" as="geometry" />
        </mxCell>
        <mxCell id="SLdn9OUWIQRKfOFRABOn-26" style="edgeStyle=orthogonalEdgeStyle;rounded=0;orthogonalLoop=1;jettySize=auto;html=1;exitX=0.5;exitY=1;exitDx=0;exitDy=0;entryX=0.5;entryY=1;entryDx=0;entryDy=0;" parent="1" source="SLdn9OUWIQRKfOFRABOn-51" target="SLdn9OUWIQRKfOFRABOn-41" edge="1">
          <mxGeometry relative="1" as="geometry">
            <mxPoint x="638.145" y="341" as="sourcePoint" />
            <mxPoint x="548.5" y="474.5" as="targetPoint" />
            <Array as="points" />
          </mxGeometry>
        </mxCell>
        <mxCell id="SLdn9OUWIQRKfOFRABOn-13" value="" style="outlineConnect=0;dashed=0;verticalLabelPosition=bottom;verticalAlign=top;align=center;html=1;shape=mxgraph.aws3.dynamo_db;fillColor=#2E73B8;gradientColor=none;" parent="1" vertex="1">
          <mxGeometry x="515" y="107.5" width="37" height="35.5" as="geometry" />
        </mxCell>
        <mxCell id="SLdn9OUWIQRKfOFRABOn-15" value="" style="outlineConnect=0;dashed=0;verticalLabelPosition=bottom;verticalAlign=top;align=center;html=1;shape=mxgraph.aws3.api_gateway;fillColor=#D9A741;gradientColor=none;" parent="1" vertex="1">
          <mxGeometry x="315" y="116.5" width="40" height="50" as="geometry" />
        </mxCell>
        <mxCell id="SLdn9OUWIQRKfOFRABOn-17" value="" style="outlineConnect=0;dashed=0;verticalLabelPosition=bottom;verticalAlign=top;align=center;html=1;shape=mxgraph.aws3.table;fillColor=#2E73B8;gradientColor=none;" parent="1" vertex="1">
          <mxGeometry x="518.5" y="164.5" width="30" height="30" as="geometry" />
        </mxCell>
        <mxCell id="SLdn9OUWIQRKfOFRABOn-18" value="" style="outlineConnect=0;dashed=0;verticalLabelPosition=bottom;verticalAlign=top;align=center;html=1;shape=mxgraph.aws3.table;fillColor=#2E73B8;gradientColor=none;" parent="1" vertex="1">
          <mxGeometry x="518.5" y="211" width="30" height="30" as="geometry" />
        </mxCell>
        <mxCell id="SLdn9OUWIQRKfOFRABOn-19" value="" style="endArrow=classic;html=1;rounded=0;strokeColor=#FF0000;entryX=0;entryY=0.5;entryDx=0;entryDy=0;entryPerimeter=0;" parent="1" edge="1">
          <mxGeometry width="50" height="50" relative="1" as="geometry">
            <mxPoint x="440" y="141" as="sourcePoint" />
            <mxPoint x="523.5" y="181.5" as="targetPoint" />
          </mxGeometry>
        </mxCell>
        <mxCell id="SLdn9OUWIQRKfOFRABOn-21" value="" style="endArrow=classic;html=1;rounded=0;strokeColor=#FF0000;entryX=0;entryY=0.5;entryDx=0;entryDy=0;entryPerimeter=0;" parent="1" target="SLdn9OUWIQRKfOFRABOn-18" edge="1">
          <mxGeometry width="50" height="50" relative="1" as="geometry">
            <mxPoint x="440" y="141" as="sourcePoint" />
            <mxPoint x="534" y="192" as="targetPoint" />
          </mxGeometry>
        </mxCell>
        <mxCell id="SLdn9OUWIQRKfOFRABOn-22" value="" style="endArrow=classic;html=1;rounded=0;strokeColor=#FF0000;entryX=1;entryY=0.5;entryDx=0;entryDy=0;entryPerimeter=0;exitX=0;exitY=0.5;exitDx=0;exitDy=0;exitPerimeter=0;" parent="1" target="SLdn9OUWIQRKfOFRABOn-17" edge="1">
          <mxGeometry width="50" height="50" relative="1" as="geometry">
            <mxPoint x="640" y="227" as="sourcePoint" />
            <mxPoint x="534" y="242" as="targetPoint" />
          </mxGeometry>
        </mxCell>
        <mxCell id="SLdn9OUWIQRKfOFRABOn-23" value="" style="endArrow=classic;html=1;rounded=0;strokeColor=#007FFF;exitX=1;exitY=0.5;exitDx=0;exitDy=0;exitPerimeter=0;" parent="1" target="SLdn9OUWIQRKfOFRABOn-18" edge="1">
          <mxGeometry width="50" height="50" relative="1" as="geometry">
            <mxPoint x="439.28999999999996" y="227" as="sourcePoint" />
            <mxPoint x="530" y="91" as="targetPoint" />
          </mxGeometry>
        </mxCell>
        <mxCell id="SLdn9OUWIQRKfOFRABOn-25" value="" style="endArrow=classic;html=1;rounded=0;strokeColor=#007FFF;exitX=1;exitY=0.5;exitDx=0;exitDy=0;exitPerimeter=0;entryX=0;entryY=0.5;entryDx=0;entryDy=0;entryPerimeter=0;" parent="1" target="SLdn9OUWIQRKfOFRABOn-17" edge="1">
          <mxGeometry width="50" height="50" relative="1" as="geometry">
            <mxPoint x="439.28999999999996" y="227" as="sourcePoint" />
            <mxPoint x="534" y="241" as="targetPoint" />
          </mxGeometry>
        </mxCell>
        <mxCell id="SLdn9OUWIQRKfOFRABOn-27" style="edgeStyle=orthogonalEdgeStyle;rounded=0;orthogonalLoop=1;jettySize=auto;html=1;strokeColor=#FF0000;exitX=0;exitY=0.5;exitDx=0;exitDy=0;exitPerimeter=0;" parent="1" source="SLdn9OUWIQRKfOFRABOn-40" edge="1">
          <mxGeometry relative="1" as="geometry">
            <mxPoint x="280" y="311" as="sourcePoint" />
            <mxPoint x="370" y="331" as="targetPoint" />
          </mxGeometry>
        </mxCell>
        <mxCell id="SLdn9OUWIQRKfOFRABOn-35" value="" style="group" parent="1" vertex="1" connectable="0">
          <mxGeometry x="657" y="108.5" width="104.36000000000001" height="45.5" as="geometry" />
        </mxCell>
        <mxCell id="SLdn9OUWIQRKfOFRABOn-32" value="&lt;font style=&quot;font-size: 10px;&quot;&gt;ReadWrite&lt;/font&gt;" style="text;html=1;strokeColor=none;fillColor=none;align=center;verticalAlign=middle;whiteSpace=wrap;rounded=0;" parent="SLdn9OUWIQRKfOFRABOn-35" vertex="1">
          <mxGeometry y="15.5" width="60" height="30" as="geometry" />
        </mxCell>
        <mxCell id="SLdn9OUWIQRKfOFRABOn-31" value="&lt;font style=&quot;font-size: 10px;&quot;&gt;Read&lt;/font&gt;" style="text;html=1;strokeColor=none;fillColor=none;align=center;verticalAlign=middle;whiteSpace=wrap;rounded=0;" parent="SLdn9OUWIQRKfOFRABOn-35" vertex="1">
          <mxGeometry x="10.360000000000014" width="60" height="30" as="geometry" />
        </mxCell>
        <mxCell id="SLdn9OUWIQRKfOFRABOn-33" value="" style="endArrow=classic;html=1;rounded=0;strokeColor=#FF0000;exitX=1;exitY=0.25;exitDx=0;exitDy=0;" parent="SLdn9OUWIQRKfOFRABOn-35" edge="1">
          <mxGeometry width="50" height="50" relative="1" as="geometry">
            <mxPoint x="64.36000000000001" y="16.43" as="sourcePoint" />
            <mxPoint x="104.36000000000001" y="16.43" as="targetPoint" />
          </mxGeometry>
        </mxCell>
        <mxCell id="SLdn9OUWIQRKfOFRABOn-34" value="" style="endArrow=classic;html=1;rounded=0;strokeColor=#007FFF;exitX=1;exitY=0.25;exitDx=0;exitDy=0;" parent="SLdn9OUWIQRKfOFRABOn-35" edge="1">
          <mxGeometry width="50" height="50" relative="1" as="geometry">
            <mxPoint x="64.36000000000001" y="32.21" as="sourcePoint" />
            <mxPoint x="104.36000000000001" y="32.21" as="targetPoint" />
          </mxGeometry>
        </mxCell>
        <mxCell id="SLdn9OUWIQRKfOFRABOn-36" value="&lt;font style=&quot;font-size: 10px;&quot;&gt;API Gateway&lt;/font&gt;" style="text;html=1;strokeColor=none;fillColor=none;align=center;verticalAlign=middle;whiteSpace=wrap;rounded=0;" parent="1" vertex="1">
          <mxGeometry x="286" y="159.25" width="100" height="30" as="geometry" />
        </mxCell>
        <mxCell id="SLdn9OUWIQRKfOFRABOn-38" value="" style="group" parent="1" vertex="1" connectable="0">
          <mxGeometry x="369.64" y="121" width="100" height="65.25" as="geometry" />
        </mxCell>
        <mxCell id="SLdn9OUWIQRKfOFRABOn-10" value="" style="outlineConnect=0;dashed=0;verticalLabelPosition=bottom;verticalAlign=top;align=center;html=1;shape=mxgraph.aws3.lambda_function;fillColor=#F58534;gradientColor=none;" parent="SLdn9OUWIQRKfOFRABOn-38" vertex="1">
          <mxGeometry x="30.360000000000014" width="39.29" height="41" as="geometry" />
        </mxCell>
        <mxCell id="SLdn9OUWIQRKfOFRABOn-37" value="&lt;font style=&quot;font-size: 10px;&quot;&gt;retrieveBattleLog&lt;/font&gt;" style="text;html=1;strokeColor=none;fillColor=none;align=center;verticalAlign=middle;whiteSpace=wrap;rounded=0;" parent="SLdn9OUWIQRKfOFRABOn-38" vertex="1">
          <mxGeometry y="35.25" width="100" height="30" as="geometry" />
        </mxCell>
        <mxCell id="SLdn9OUWIQRKfOFRABOn-48" value="" style="endArrow=classic;html=1;rounded=0;" parent="SLdn9OUWIQRKfOFRABOn-38" edge="1">
          <mxGeometry width="50" height="50" relative="1" as="geometry">
            <mxPoint x="-13.990000000000009" y="20.319999999999993" as="sourcePoint" />
            <mxPoint x="30.360000000000014" y="20.159999999999997" as="targetPoint" />
          </mxGeometry>
        </mxCell>
        <mxCell id="SLdn9OUWIQRKfOFRABOn-39" value="" style="group" parent="1" vertex="1" connectable="0">
          <mxGeometry x="370" y="206" width="100" height="65.25" as="geometry" />
        </mxCell>
        <mxCell id="SLdn9OUWIQRKfOFRABOn-40" value="" style="outlineConnect=0;dashed=0;verticalLabelPosition=bottom;verticalAlign=top;align=center;html=1;shape=mxgraph.aws3.lambda_function;fillColor=#F58534;gradientColor=none;" parent="SLdn9OUWIQRKfOFRABOn-39" vertex="1">
          <mxGeometry x="30.360000000000014" width="39.29" height="41" as="geometry" />
        </mxCell>
        <mxCell id="SLdn9OUWIQRKfOFRABOn-41" value="&lt;font style=&quot;font-size: 10px;&quot;&gt;updateBattleLog&lt;/font&gt;" style="text;html=1;strokeColor=none;fillColor=none;align=center;verticalAlign=middle;whiteSpace=wrap;rounded=0;" parent="SLdn9OUWIQRKfOFRABOn-39" vertex="1">
          <mxGeometry y="35.25" width="100" height="30" as="geometry" />
        </mxCell>
        <mxCell id="SLdn9OUWIQRKfOFRABOn-42" value="" style="endArrow=classic;html=1;rounded=0;entryX=-0.012;entryY=0.515;entryDx=0;entryDy=0;entryPerimeter=0;" parent="1" edge="1">
          <mxGeometry width="50" height="50" relative="1" as="geometry">
            <mxPoint x="70" y="141" as="sourcePoint" />
            <mxPoint x="153.3280000000001" y="141.1825" as="targetPoint" />
          </mxGeometry>
        </mxCell>
        <mxCell id="SLdn9OUWIQRKfOFRABOn-43" value="" style="endArrow=classic;html=1;rounded=0;" parent="1" edge="1">
          <mxGeometry width="50" height="50" relative="1" as="geometry">
            <mxPoint x="176" y="141.16" as="sourcePoint" />
            <mxPoint x="315" y="141.4572327044025" as="targetPoint" />
          </mxGeometry>
        </mxCell>
        <mxCell id="SLdn9OUWIQRKfOFRABOn-44" value="&lt;font style=&quot;font-size: 10px;&quot;&gt;DynamoDB&lt;/font&gt;" style="text;html=1;strokeColor=none;fillColor=none;align=center;verticalAlign=middle;whiteSpace=wrap;rounded=0;" parent="1" vertex="1">
          <mxGeometry x="485" y="134.25" width="100" height="30" as="geometry" />
        </mxCell>
        <mxCell id="SLdn9OUWIQRKfOFRABOn-47" value="&lt;font style=&quot;font-size: 10px;&quot;&gt;BattleLog&lt;/font&gt;" style="text;html=1;strokeColor=none;fillColor=none;align=center;verticalAlign=middle;whiteSpace=wrap;rounded=0;" parent="1" vertex="1">
          <mxGeometry x="485" y="232" width="100" height="30" as="geometry" />
        </mxCell>
        <mxCell id="SLdn9OUWIQRKfOFRABOn-49" value="" style="group" parent="1" vertex="1" connectable="0">
          <mxGeometry x="600" y="205.75" width="100" height="65.25" as="geometry" />
        </mxCell>
        <mxCell id="SLdn9OUWIQRKfOFRABOn-50" value="" style="outlineConnect=0;dashed=0;verticalLabelPosition=bottom;verticalAlign=top;align=center;html=1;shape=mxgraph.aws3.lambda_function;fillColor=#F58534;gradientColor=none;" parent="SLdn9OUWIQRKfOFRABOn-49" vertex="1">
          <mxGeometry x="30.360000000000014" width="39.29" height="41" as="geometry" />
        </mxCell>
        <mxCell id="SLdn9OUWIQRKfOFRABOn-51" value="&lt;font style=&quot;font-size: 10px;&quot;&gt;updateWrapper&lt;/font&gt;" style="text;html=1;strokeColor=none;fillColor=none;align=center;verticalAlign=middle;whiteSpace=wrap;rounded=0;" parent="SLdn9OUWIQRKfOFRABOn-49" vertex="1">
          <mxGeometry y="35.25" width="100" height="30" as="geometry" />
        </mxCell>
        <mxCell id="SLdn9OUWIQRKfOFRABOn-53" value="" style="group" parent="1" vertex="1" connectable="0">
          <mxGeometry x="690" y="191" width="100" height="80" as="geometry" />
        </mxCell>
        <mxCell id="SLdn9OUWIQRKfOFRABOn-16" value="" style="outlineConnect=0;dashed=0;verticalLabelPosition=bottom;verticalAlign=top;align=center;html=1;shape=mxgraph.aws3.event_time_based;fillColor=#759C3E;gradientColor=none;" parent="SLdn9OUWIQRKfOFRABOn-53" vertex="1">
          <mxGeometry x="31" width="40" height="50" as="geometry" />
        </mxCell>
        <mxCell id="SLdn9OUWIQRKfOFRABOn-52" value="&lt;font style=&quot;font-size: 10px;&quot;&gt;EventBridge&lt;br style=&quot;font-size: 10px;&quot;&gt;(Schedule)&lt;br style=&quot;font-size: 10px;&quot;&gt;&lt;/font&gt;" style="text;html=1;strokeColor=none;fillColor=none;align=center;verticalAlign=middle;whiteSpace=wrap;rounded=0;fontSize=10;" parent="SLdn9OUWIQRKfOFRABOn-53" vertex="1">
          <mxGeometry y="50" width="100" height="30" as="geometry" />
        </mxCell>
        <mxCell id="SLdn9OUWIQRKfOFRABOn-55" value="" style="endArrow=classic;html=1;rounded=0;" parent="SLdn9OUWIQRKfOFRABOn-53" edge="1">
          <mxGeometry width="50" height="50" relative="1" as="geometry">
            <mxPoint x="25" y="36" as="sourcePoint" />
            <mxPoint x="-15" y="36.16" as="targetPoint" />
          </mxGeometry>
        </mxCell>
        <mxCell id="SLdn9OUWIQRKfOFRABOn-56" value="" style="shape=image;verticalLabelPosition=bottom;labelBackgroundColor=default;verticalAlign=top;aspect=fixed;imageAspect=0;image=https://www.streetfighter.com/6/buckler/assets/images/common/logo_buckler_ja.png;" parent="1" vertex="1">
          <mxGeometry x="301.63" y="331" width="183.37" height="60" as="geometry" />
        </mxCell>
        <mxCell id="SLdn9OUWIQRKfOFRABOn-59" value="" style="group" parent="1" vertex="1" connectable="0">
          <mxGeometry x="132" y="118.75" width="100" height="70.5" as="geometry" />
        </mxCell>
        <mxCell id="SLdn9OUWIQRKfOFRABOn-2" value="" style="image;aspect=fixed;html=1;points=[];align=center;fontSize=12;image=img/lib/azure2/general/Code.svg;" parent="SLdn9OUWIQRKfOFRABOn-59" vertex="1">
          <mxGeometry x="22" width="56" height="45.5" as="geometry" />
        </mxCell>
        <mxCell id="SLdn9OUWIQRKfOFRABOn-29" value="&lt;font style=&quot;font-size: 10px;&quot;&gt;Static Web Apps&lt;/font&gt;" style="text;html=1;strokeColor=none;fillColor=none;align=center;verticalAlign=middle;whiteSpace=wrap;rounded=0;" parent="SLdn9OUWIQRKfOFRABOn-59" vertex="1">
          <mxGeometry y="40.5" width="100" height="30" as="geometry" />
        </mxCell>
        <mxCell id="SLdn9OUWIQRKfOFRABOn-61" style="edgeStyle=orthogonalEdgeStyle;rounded=0;orthogonalLoop=1;jettySize=auto;html=1;exitX=0.5;exitY=1;exitDx=0;exitDy=0;" parent="1" source="SLdn9OUWIQRKfOFRABOn-37" target="SLdn9OUWIQRKfOFRABOn-40" edge="1">
          <mxGeometry relative="1" as="geometry" />
        </mxCell>
        <mxCell id="QjS1-dtSFMJ1I2xEOOv9-1" value="&lt;b&gt;&lt;font style=&quot;font-size: 17px;&quot;&gt;&lt;u&gt;Architecture Overview&lt;/u&gt;&lt;/font&gt;&lt;/b&gt;" style="text;html=1;strokeColor=none;fillColor=none;align=left;verticalAlign=middle;whiteSpace=wrap;rounded=0;" parent="1" vertex="1">
          <mxGeometry x="40" y="20" width="210" height="30" as="geometry" />
        </mxCell>
      </root>
    </mxGraphModel>
  </diagram>
  <diagram name="UI Architecture" id="o2niAgUp19dbrIMnwDlM">
    <mxGraphModel dx="1128" dy="676" grid="1" gridSize="10" guides="1" tooltips="1" connect="1" arrows="1" fold="1" page="1" pageScale="1" pageWidth="850" pageHeight="1100" math="0" shadow="0">
      <root>
        <mxCell id="0" />
        <mxCell id="1" parent="0" />
        <mxCell id="bmLjP41bgdoZAWXD-I_o-1" value="APP&lt;br&gt;." style="rounded=1;whiteSpace=wrap;html=1;" parent="1" vertex="1">
          <mxGeometry x="130" y="112" width="120" height="90" as="geometry" />
        </mxCell>
        <mxCell id="bmLjP41bgdoZAWXD-I_o-2" value="Component Structure" style="text;html=1;strokeColor=none;fillColor=none;align=center;verticalAlign=middle;whiteSpace=wrap;rounded=0;fontSize=14;fontStyle=4" parent="1" vertex="1">
          <mxGeometry x="30" y="62" width="160" height="30" as="geometry" />
        </mxCell>
        <mxCell id="bmLjP41bgdoZAWXD-I_o-3" value="SimpleForm" style="rounded=1;whiteSpace=wrap;html=1;" parent="1" vertex="1">
          <mxGeometry x="50" y="282" width="120" height="60" as="geometry" />
        </mxCell>
        <mxCell id="bmLjP41bgdoZAWXD-I_o-4" value="SimpleTable" style="rounded=1;whiteSpace=wrap;html=1;" parent="1" vertex="1">
          <mxGeometry x="210" y="282" width="120" height="60" as="geometry" />
        </mxCell>
        <mxCell id="bmLjP41bgdoZAWXD-I_o-9" style="edgeStyle=orthogonalEdgeStyle;rounded=0;orthogonalLoop=1;jettySize=auto;html=1;exitX=0.5;exitY=1;exitDx=0;exitDy=0;" parent="1" source="bmLjP41bgdoZAWXD-I_o-5" target="bmLjP41bgdoZAWXD-I_o-3" edge="1">
          <mxGeometry relative="1" as="geometry" />
        </mxCell>
        <mxCell id="bmLjP41bgdoZAWXD-I_o-10" style="edgeStyle=orthogonalEdgeStyle;rounded=0;orthogonalLoop=1;jettySize=auto;html=1;exitX=0.5;exitY=1;exitDx=0;exitDy=0;" parent="1" source="bmLjP41bgdoZAWXD-I_o-5" target="bmLjP41bgdoZAWXD-I_o-4" edge="1">
          <mxGeometry relative="1" as="geometry" />
        </mxCell>
        <mxCell id="bmLjP41bgdoZAWXD-I_o-5" value="dataSource" style="rounded=1;whiteSpace=wrap;html=1;fillColor=#d5e8d4;strokeColor=#82b366;" parent="1" vertex="1">
          <mxGeometry x="145" y="163" width="90" height="30" as="geometry" />
        </mxCell>
        <mxCell id="bmLjP41bgdoZAWXD-I_o-11" value="- Update dataSource&lt;br&gt;- Fetch REST API" style="text;html=1;strokeColor=none;fillColor=none;align=left;verticalAlign=middle;whiteSpace=wrap;rounded=0;" parent="1" vertex="1">
          <mxGeometry x="50" y="352" width="120" height="40" as="geometry" />
        </mxCell>
        <mxCell id="bmLjP41bgdoZAWXD-I_o-12" value="- Represent dataSource" style="text;html=1;strokeColor=none;fillColor=none;align=left;verticalAlign=middle;whiteSpace=wrap;rounded=0;" parent="1" vertex="1">
          <mxGeometry x="210" y="352" width="140" height="40" as="geometry" />
        </mxCell>
        <mxCell id="bmLjP41bgdoZAWXD-I_o-13" value="Data&amp;nbsp;Structure" style="text;html=1;strokeColor=none;fillColor=none;align=center;verticalAlign=middle;whiteSpace=wrap;rounded=0;fontSize=14;fontStyle=4" parent="1" vertex="1">
          <mxGeometry x="360" y="62" width="160" height="30" as="geometry" />
        </mxCell>
        <mxCell id="bmLjP41bgdoZAWXD-I_o-14" value="battleLog" style="swimlane;fontStyle=0;childLayout=stackLayout;horizontal=1;startSize=30;horizontalStack=0;resizeParent=1;resizeParentMax=0;resizeLast=0;collapsible=1;marginBottom=0;whiteSpace=wrap;html=1;" parent="1" vertex="1">
          <mxGeometry x="642" y="193" width="140" height="90" as="geometry" />
        </mxCell>
        <mxCell id="bmLjP41bgdoZAWXD-I_o-15" value="date" style="text;strokeColor=none;fillColor=none;align=left;verticalAlign=middle;spacingLeft=4;spacingRight=4;overflow=hidden;points=[[0,0.5],[1,0.5]];portConstraint=eastwest;rotatable=0;whiteSpace=wrap;html=1;" parent="bmLjP41bgdoZAWXD-I_o-14" vertex="1">
          <mxGeometry y="30" width="140" height="30" as="geometry" />
        </mxCell>
        <mxCell id="bmLjP41bgdoZAWXD-I_o-16" value="time" style="text;strokeColor=default;fillColor=none;align=left;verticalAlign=middle;spacingLeft=4;spacingRight=4;overflow=hidden;points=[[0,0.5],[1,0.5]];portConstraint=eastwest;rotatable=0;whiteSpace=wrap;html=1;" parent="bmLjP41bgdoZAWXD-I_o-14" vertex="1">
          <mxGeometry y="60" width="140" height="30" as="geometry" />
        </mxCell>
        <mxCell id="bmLjP41bgdoZAWXD-I_o-18" value="dataSource" style="swimlane;fontStyle=0;childLayout=stackLayout;horizontal=1;startSize=30;horizontalStack=0;resizeParent=1;resizeParentMax=0;resizeLast=0;collapsible=1;marginBottom=0;whiteSpace=wrap;html=1;" parent="1" vertex="1">
          <mxGeometry x="425" y="112" width="140" height="90" as="geometry" />
        </mxCell>
        <mxCell id="bmLjP41bgdoZAWXD-I_o-19" value="userName" style="text;strokeColor=none;fillColor=none;align=left;verticalAlign=middle;spacingLeft=4;spacingRight=4;overflow=hidden;points=[[0,0.5],[1,0.5]];portConstraint=eastwest;rotatable=0;whiteSpace=wrap;html=1;" parent="bmLjP41bgdoZAWXD-I_o-18" vertex="1">
          <mxGeometry y="30" width="140" height="30" as="geometry" />
        </mxCell>
        <mxCell id="bmLjP41bgdoZAWXD-I_o-20" value="battleLog" style="text;strokeColor=default;fillColor=none;align=left;verticalAlign=middle;spacingLeft=4;spacingRight=4;overflow=hidden;points=[[0,0.5],[1,0.5]];portConstraint=eastwest;rotatable=0;whiteSpace=wrap;html=1;" parent="bmLjP41bgdoZAWXD-I_o-18" vertex="1">
          <mxGeometry y="60" width="140" height="30" as="geometry" />
        </mxCell>
        <mxCell id="bmLjP41bgdoZAWXD-I_o-21" value="character" style="text;strokeColor=default;fillColor=none;align=left;verticalAlign=middle;spacingLeft=4;spacingRight=4;overflow=hidden;points=[[0,0.5],[1,0.5]];portConstraint=eastwest;rotatable=0;whiteSpace=wrap;html=1;" parent="1" vertex="1">
          <mxGeometry x="642" y="283" width="140" height="30" as="geometry" />
        </mxCell>
        <mxCell id="bmLjP41bgdoZAWXD-I_o-22" value="result" style="text;strokeColor=default;fillColor=none;align=left;verticalAlign=middle;spacingLeft=4;spacingRight=4;overflow=hidden;points=[[0,0.5],[1,0.5]];portConstraint=eastwest;rotatable=0;whiteSpace=wrap;html=1;" parent="1" vertex="1">
          <mxGeometry x="642" y="313" width="140" height="30" as="geometry" />
        </mxCell>
        <mxCell id="bmLjP41bgdoZAWXD-I_o-23" value="lpChange" style="text;strokeColor=default;fillColor=none;align=left;verticalAlign=middle;spacingLeft=4;spacingRight=4;overflow=hidden;points=[[0,0.5],[1,0.5]];portConstraint=eastwest;rotatable=0;whiteSpace=wrap;html=1;" parent="1" vertex="1">
          <mxGeometry x="642" y="343" width="140" height="30" as="geometry" />
        </mxCell>
        <mxCell id="bmLjP41bgdoZAWXD-I_o-24" value="" style="endArrow=none;html=1;rounded=0;entryX=0;entryY=0.178;entryDx=0;entryDy=0;entryPerimeter=0;exitX=1;exitY=0.5;exitDx=0;exitDy=0;" parent="1" source="bmLjP41bgdoZAWXD-I_o-20" target="bmLjP41bgdoZAWXD-I_o-14" edge="1">
          <mxGeometry width="50" height="50" relative="1" as="geometry">
            <mxPoint x="400" y="411" as="sourcePoint" />
            <mxPoint x="450" y="361" as="targetPoint" />
          </mxGeometry>
        </mxCell>
        <mxCell id="bmLjP41bgdoZAWXD-I_o-25" value="1" style="text;html=1;strokeColor=none;fillColor=none;align=center;verticalAlign=middle;whiteSpace=wrap;rounded=0;" parent="1" vertex="1">
          <mxGeometry x="550" y="161" width="60" height="30" as="geometry" />
        </mxCell>
        <mxCell id="bmLjP41bgdoZAWXD-I_o-26" value="N" style="text;html=1;strokeColor=none;fillColor=none;align=center;verticalAlign=middle;whiteSpace=wrap;rounded=0;" parent="1" vertex="1">
          <mxGeometry x="596" y="174" width="60" height="30" as="geometry" />
        </mxCell>
        <mxCell id="bmLjP41bgdoZAWXD-I_o-27" value="- Column Candidate&lt;br&gt;&amp;nbsp; &amp;nbsp; character&lt;br&gt;&amp;nbsp; &amp;nbsp; userCode [key]&lt;br&gt;&amp;nbsp; &amp;nbsp; etc..." style="text;html=1;strokeColor=none;fillColor=none;align=left;verticalAlign=middle;whiteSpace=wrap;rounded=0;" parent="1" vertex="1">
          <mxGeometry x="425" y="204" width="140" height="88" as="geometry" />
        </mxCell>
        <mxCell id="bmLjP41bgdoZAWXD-I_o-28" value="・集計機能はTableに持たせる。（各テーブルは自身のViewに合わせてデータを作る責務を持つ）&lt;br&gt;・Azure Static Web 上にデプロイして実行する。" style="text;html=1;strokeColor=none;fillColor=none;align=left;verticalAlign=middle;whiteSpace=wrap;rounded=0;labelBackgroundColor=#FFF4C3;" parent="1" vertex="1">
          <mxGeometry x="50" y="422" width="740" height="48" as="geometry" />
        </mxCell>
        <mxCell id="bmLjP41bgdoZAWXD-I_o-29" value="&lt;b&gt;&lt;font style=&quot;font-size: 17px;&quot;&gt;&lt;u&gt;UI Part&lt;/u&gt;&lt;/font&gt;&lt;/b&gt;" style="text;html=1;strokeColor=none;fillColor=none;align=left;verticalAlign=middle;whiteSpace=wrap;rounded=0;" parent="1" vertex="1">
          <mxGeometry x="40" y="20" width="170" height="30" as="geometry" />
        </mxCell>
        <mxCell id="bmLjP41bgdoZAWXD-I_o-30" value="&lt;b&gt;&lt;font style=&quot;font-size: 17px;&quot;&gt;&lt;u&gt;Backend Part&lt;/u&gt;&lt;/font&gt;&lt;/b&gt;" style="text;html=1;strokeColor=none;fillColor=none;align=left;verticalAlign=middle;whiteSpace=wrap;rounded=0;" parent="1" vertex="1">
          <mxGeometry x="40" y="500" width="170" height="30" as="geometry" />
        </mxCell>
        <mxCell id="bmLjP41bgdoZAWXD-I_o-31" value="・CORS制約回避のために下記の構成でバックエンドを用意する。&lt;br&gt;&amp;nbsp; &amp;nbsp; - AWS Lambda Function としてデータの取得機能を実装（UI Part の Data Structure の形式のJSONとして戻す）&lt;br&gt;&amp;nbsp; &amp;nbsp; - API Gateway を構成し、LambdaへのアクセスURLを用意する。CORSで参照を許可する。実行回数制限を設ける。" style="text;html=1;strokeColor=none;fillColor=none;align=left;verticalAlign=middle;whiteSpace=wrap;rounded=0;labelBackgroundColor=#FFF4C3;" parent="1" vertex="1">
          <mxGeometry x="50" y="560" width="740" height="40" as="geometry" />
        </mxCell>
      </root>
    </mxGraphModel>
  </diagram>
  <diagram id="R5gwErk_It804KRlVkgy" name="DB Design">
    <mxGraphModel dx="1128" dy="676" grid="1" gridSize="10" guides="1" tooltips="1" connect="1" arrows="1" fold="1" page="1" pageScale="1" pageWidth="850" pageHeight="1100" math="0" shadow="0">
      <root>
        <mxCell id="0" />
        <mxCell id="1" parent="0" />
        <mxCell id="MRrxhiVudbIoeR27RYw8-1" value="DynamoDB Table Design" style="text;html=1;strokeColor=none;fillColor=none;align=center;verticalAlign=middle;whiteSpace=wrap;rounded=0;fontStyle=5;fontSize=14;" parent="1" vertex="1">
          <mxGeometry x="20" y="30" width="210" height="30" as="geometry" />
        </mxCell>
        <mxCell id="MRrxhiVudbIoeR27RYw8-2" value="BattleLog" style="swimlane;fontStyle=0;childLayout=stackLayout;horizontal=1;startSize=30;horizontalStack=0;resizeParent=1;resizeParentMax=0;resizeLast=0;collapsible=1;marginBottom=0;whiteSpace=wrap;html=1;" parent="1" vertex="1">
          <mxGeometry x="55" y="70" width="140" height="150" as="geometry">
            <mxRectangle x="55" y="70" width="90" height="30" as="alternateBounds" />
          </mxGeometry>
        </mxCell>
        <mxCell id="MRrxhiVudbIoeR27RYw8-3" value="[P] UserCode" style="text;strokeColor=none;fillColor=none;align=left;verticalAlign=middle;spacingLeft=4;spacingRight=4;overflow=hidden;points=[[0,0.5],[1,0.5]];portConstraint=eastwest;rotatable=0;whiteSpace=wrap;html=1;" parent="MRrxhiVudbIoeR27RYw8-2" vertex="1">
          <mxGeometry y="30" width="140" height="30" as="geometry" />
        </mxCell>
        <mxCell id="MRrxhiVudbIoeR27RYw8-4" value="[S] UploadedAt" style="text;strokeColor=none;fillColor=none;align=left;verticalAlign=middle;spacingLeft=4;spacingRight=4;overflow=hidden;points=[[0,0.5],[1,0.5]];portConstraint=eastwest;rotatable=0;whiteSpace=wrap;html=1;" parent="MRrxhiVudbIoeR27RYw8-2" vertex="1">
          <mxGeometry y="60" width="140" height="30" as="geometry" />
        </mxCell>
        <mxCell id="MRrxhiVudbIoeR27RYw8-5" value="Replay" style="text;strokeColor=none;fillColor=none;align=left;verticalAlign=middle;spacingLeft=4;spacingRight=4;overflow=hidden;points=[[0,0.5],[1,0.5]];portConstraint=eastwest;rotatable=0;whiteSpace=wrap;html=1;" parent="MRrxhiVudbIoeR27RYw8-2" vertex="1">
          <mxGeometry y="90" width="140" height="30" as="geometry" />
        </mxCell>
        <mxCell id="R9ICjo6Tj-ol_J4_DQli-5" value="ReplayReduced" style="text;strokeColor=none;fillColor=none;align=left;verticalAlign=middle;spacingLeft=4;spacingRight=4;overflow=hidden;points=[[0,0.5],[1,0.5]];portConstraint=eastwest;rotatable=0;whiteSpace=wrap;html=1;" parent="MRrxhiVudbIoeR27RYw8-2" vertex="1">
          <mxGeometry y="120" width="140" height="30" as="geometry" />
        </mxCell>
        <mxCell id="MRrxhiVudbIoeR27RYw8-7" value="- プライマリキー（複合キー）&lt;br&gt;&amp;nbsp; &amp;nbsp; パーティションキーが「user_code」&lt;br&gt;&amp;nbsp; &amp;nbsp; ソートキーが「uploaded_at」&lt;br&gt;- セカンダリインデックスは不要なので作成しない&lt;br&gt;- replay&lt;br&gt;&amp;nbsp; &amp;nbsp; Buckler&#39;s Boot Camp から取得したreplay情報のJSON（以下）をそのまま格納する。&lt;br&gt;&amp;nbsp; &amp;nbsp; サイズは minify して約3.1KB. 2万件格納することを想定するとカラムのサイズは全体で 62MB 程度&lt;br&gt;&amp;nbsp; &amp;nbsp; １回にクエリするのは１日100対戦したとして８日分の800件。サイズにして 2.5MB 程度" style="text;html=1;strokeColor=#666666;fillColor=#f5f5f5;align=left;verticalAlign=top;whiteSpace=wrap;rounded=0;fontColor=#333333;spacingLeft=3;" parent="1" vertex="1">
          <mxGeometry x="220" y="70" width="590" height="130" as="geometry" />
        </mxCell>
        <mxCell id="MRrxhiVudbIoeR27RYw8-8" value="&lt;div style=&quot;font-size: 7px;&quot;&gt;&lt;span style=&quot;background-color: initial;&quot;&gt;&lt;br&gt;&lt;/span&gt;&lt;/div&gt;&lt;div style=&quot;font-size: 7px;&quot;&gt;&lt;span style=&quot;background-color: initial;&quot;&gt;&lt;br&gt;&lt;/span&gt;&lt;/div&gt;&lt;div style=&quot;font-size: 7px;&quot;&gt;&lt;span style=&quot;background-color: initial;&quot;&gt;&lt;br&gt;&lt;/span&gt;&lt;/div&gt;&lt;div style=&quot;font-size: 7px;&quot;&gt;&lt;span style=&quot;background-color: initial;&quot;&gt;&amp;nbsp; &amp;nbsp; &amp;nbsp; &amp;nbsp; &quot;player2_info&quot;: {&lt;/span&gt;&lt;br&gt;&lt;/div&gt;&lt;div style=&quot;font-size: 7px;&quot;&gt;&amp;nbsp; &amp;nbsp; &amp;nbsp; &amp;nbsp; &amp;nbsp; &quot;allow_cross_play&quot;: true,&lt;/div&gt;&lt;div style=&quot;font-size: 7px;&quot;&gt;&amp;nbsp; &amp;nbsp; &amp;nbsp; &amp;nbsp; &amp;nbsp; &quot;battle_input_type&quot;: 1,&lt;/div&gt;&lt;div style=&quot;font-size: 7px;&quot;&gt;&amp;nbsp; &amp;nbsp; &amp;nbsp; &amp;nbsp; &amp;nbsp; &quot;character_id&quot;: 12,&lt;/div&gt;&lt;div style=&quot;font-size: 7px;&quot;&gt;&amp;nbsp; &amp;nbsp; &amp;nbsp; &amp;nbsp; &amp;nbsp; &quot;home_id&quot;: 85,&lt;/div&gt;&lt;div style=&quot;font-size: 7px;&quot;&gt;&amp;nbsp; &amp;nbsp; &amp;nbsp; &amp;nbsp; &amp;nbsp; &quot;league_point&quot;: 15623,&lt;/div&gt;&lt;div style=&quot;font-size: 7px;&quot;&gt;&amp;nbsp; &amp;nbsp; &amp;nbsp; &amp;nbsp; &amp;nbsp; &quot;league_rank&quot;: 28,&lt;/div&gt;&lt;div style=&quot;font-size: 7px;&quot;&gt;&amp;nbsp; &amp;nbsp; &amp;nbsp; &amp;nbsp; &amp;nbsp; &quot;main_circle&quot;: {&lt;/div&gt;&lt;div style=&quot;font-size: 7px;&quot;&gt;&amp;nbsp; &amp;nbsp; &amp;nbsp; &amp;nbsp; &amp;nbsp; &amp;nbsp; &quot;circle_id&quot;: &quot;&quot;,&lt;/div&gt;&lt;div style=&quot;font-size: 7px;&quot;&gt;&amp;nbsp; &amp;nbsp; &amp;nbsp; &amp;nbsp; &amp;nbsp; &amp;nbsp; &quot;circle_name&quot;: &quot;&quot;,&lt;/div&gt;&lt;div style=&quot;font-size: 7px;&quot;&gt;&amp;nbsp; &amp;nbsp; &amp;nbsp; &amp;nbsp; &amp;nbsp; &amp;nbsp; &quot;data_exist&quot;: false,&lt;/div&gt;&lt;div style=&quot;font-size: 7px;&quot;&gt;&amp;nbsp; &amp;nbsp; &amp;nbsp; &amp;nbsp; &amp;nbsp; &amp;nbsp; &quot;emblem&quot;: {&lt;/div&gt;&lt;div style=&quot;font-size: 7px;&quot;&gt;&amp;nbsp; &amp;nbsp; &amp;nbsp; &amp;nbsp; &amp;nbsp; &amp;nbsp; &amp;nbsp; &quot;emblem_base&quot;: 0,&lt;/div&gt;&lt;div style=&quot;font-size: 7px;&quot;&gt;&amp;nbsp; &amp;nbsp; &amp;nbsp; &amp;nbsp; &amp;nbsp; &amp;nbsp; &amp;nbsp; &quot;emblem_base_color&quot;: 0,&lt;/div&gt;&lt;div style=&quot;font-size: 7px;&quot;&gt;&amp;nbsp; &amp;nbsp; &amp;nbsp; &amp;nbsp; &amp;nbsp; &amp;nbsp; &amp;nbsp; &quot;emblem_frame&quot;: 0,&lt;/div&gt;&lt;div style=&quot;font-size: 7px;&quot;&gt;&amp;nbsp; &amp;nbsp; &amp;nbsp; &amp;nbsp; &amp;nbsp; &amp;nbsp; &amp;nbsp; &quot;emblem_frame_color&quot;: 0,&lt;/div&gt;&lt;div style=&quot;font-size: 7px;&quot;&gt;&amp;nbsp; &amp;nbsp; &amp;nbsp; &amp;nbsp; &amp;nbsp; &amp;nbsp; &amp;nbsp; &quot;emblem_pattern&quot;: 0,&lt;/div&gt;&lt;div style=&quot;font-size: 7px;&quot;&gt;&amp;nbsp; &amp;nbsp; &amp;nbsp; &amp;nbsp; &amp;nbsp; &amp;nbsp; &amp;nbsp; &quot;emblem_pattern_color&quot;: 0,&lt;/div&gt;&lt;div style=&quot;font-size: 7px;&quot;&gt;&amp;nbsp; &amp;nbsp; &amp;nbsp; &amp;nbsp; &amp;nbsp; &amp;nbsp; &amp;nbsp; &quot;emblem_pattern_horizontal_inversion&quot;: false,&lt;/div&gt;&lt;div style=&quot;font-size: 7px;&quot;&gt;&amp;nbsp; &amp;nbsp; &amp;nbsp; &amp;nbsp; &amp;nbsp; &amp;nbsp; &amp;nbsp; &quot;emblem_pattern_vertical_inversion&quot;: false,&lt;/div&gt;&lt;div style=&quot;font-size: 7px;&quot;&gt;&amp;nbsp; &amp;nbsp; &amp;nbsp; &amp;nbsp; &amp;nbsp; &amp;nbsp; &amp;nbsp; &quot;emblem_processing&quot;: 0,&lt;/div&gt;&lt;div style=&quot;font-size: 7px;&quot;&gt;&amp;nbsp; &amp;nbsp; &amp;nbsp; &amp;nbsp; &amp;nbsp; &amp;nbsp; &amp;nbsp; &quot;emblem_symbol1&quot;: 0,&lt;/div&gt;&lt;div style=&quot;font-size: 7px;&quot;&gt;&amp;nbsp; &amp;nbsp; &amp;nbsp; &amp;nbsp; &amp;nbsp; &amp;nbsp; &amp;nbsp; &quot;emblem_symbol1_clipping&quot;: false,&lt;/div&gt;&lt;div style=&quot;font-size: 7px;&quot;&gt;&amp;nbsp; &amp;nbsp; &amp;nbsp; &amp;nbsp; &amp;nbsp; &amp;nbsp; &amp;nbsp; &quot;emblem_symbol1_color&quot;: 0,&lt;/div&gt;&lt;div style=&quot;font-size: 7px;&quot;&gt;&amp;nbsp; &amp;nbsp; &amp;nbsp; &amp;nbsp; &amp;nbsp; &amp;nbsp; &amp;nbsp; &quot;emblem_symbol1_horizontal_inversion&quot;: false,&lt;/div&gt;&lt;div style=&quot;font-size: 7px;&quot;&gt;&amp;nbsp; &amp;nbsp; &amp;nbsp; &amp;nbsp; &amp;nbsp; &amp;nbsp; &amp;nbsp; &quot;emblem_symbol1_vertical_inversion&quot;: false,&lt;/div&gt;&lt;div style=&quot;font-size: 7px;&quot;&gt;&amp;nbsp; &amp;nbsp; &amp;nbsp; &amp;nbsp; &amp;nbsp; &amp;nbsp; &amp;nbsp; &quot;emblem_symbol2&quot;: 0,&lt;/div&gt;&lt;div style=&quot;font-size: 7px;&quot;&gt;&amp;nbsp; &amp;nbsp; &amp;nbsp; &amp;nbsp; &amp;nbsp; &amp;nbsp; &amp;nbsp; &quot;emblem_symbol2_clipping&quot;: false,&lt;/div&gt;&lt;div style=&quot;font-size: 7px;&quot;&gt;&amp;nbsp; &amp;nbsp; &amp;nbsp; &amp;nbsp; &amp;nbsp; &amp;nbsp; &amp;nbsp; &quot;emblem_symbol2_color&quot;: 0,&lt;/div&gt;&lt;div style=&quot;font-size: 7px;&quot;&gt;&amp;nbsp; &amp;nbsp; &amp;nbsp; &amp;nbsp; &amp;nbsp; &amp;nbsp; &amp;nbsp; &quot;emblem_symbol2_horizontal_inversion&quot;: false,&lt;/div&gt;&lt;div style=&quot;font-size: 7px;&quot;&gt;&amp;nbsp; &amp;nbsp; &amp;nbsp; &amp;nbsp; &amp;nbsp; &amp;nbsp; &amp;nbsp; &quot;emblem_symbol2_vertical_inversion&quot;: false&lt;/div&gt;&lt;div style=&quot;font-size: 7px;&quot;&gt;&amp;nbsp; &amp;nbsp; &amp;nbsp; &amp;nbsp; &amp;nbsp; &amp;nbsp; },&lt;/div&gt;&lt;div style=&quot;font-size: 7px;&quot;&gt;&amp;nbsp; &amp;nbsp; &amp;nbsp; &amp;nbsp; &amp;nbsp; &amp;nbsp; &quot;leader&quot;: {&lt;/div&gt;&lt;div style=&quot;font-size: 7px;&quot;&gt;&amp;nbsp; &amp;nbsp; &amp;nbsp; &amp;nbsp; &amp;nbsp; &amp;nbsp; &amp;nbsp; &quot;fighter_id&quot;: &quot;&quot;,&lt;/div&gt;&lt;div style=&quot;font-size: 7px;&quot;&gt;&amp;nbsp; &amp;nbsp; &amp;nbsp; &amp;nbsp; &amp;nbsp; &amp;nbsp; &amp;nbsp; &quot;platform_id&quot;: 0,&lt;/div&gt;&lt;div style=&quot;font-size: 7px;&quot;&gt;&amp;nbsp; &amp;nbsp; &amp;nbsp; &amp;nbsp; &amp;nbsp; &amp;nbsp; &amp;nbsp; &quot;short_id&quot;: 0&lt;/div&gt;&lt;div style=&quot;font-size: 7px;&quot;&gt;&amp;nbsp; &amp;nbsp; &amp;nbsp; &amp;nbsp; &amp;nbsp; &amp;nbsp; }&lt;/div&gt;&lt;div style=&quot;font-size: 7px;&quot;&gt;&amp;nbsp; &amp;nbsp; &amp;nbsp; &amp;nbsp; &amp;nbsp; },&lt;/div&gt;&lt;div style=&quot;font-size: 7px;&quot;&gt;&amp;nbsp; &amp;nbsp; &amp;nbsp; &amp;nbsp; &amp;nbsp; &quot;master_league&quot;: 0,&lt;/div&gt;&lt;div style=&quot;font-size: 7px;&quot;&gt;&amp;nbsp; &amp;nbsp; &amp;nbsp; &amp;nbsp; &amp;nbsp; &quot;master_rating&quot;: 0,&lt;/div&gt;&lt;div style=&quot;font-size: 7px;&quot;&gt;&amp;nbsp; &amp;nbsp; &amp;nbsp; &amp;nbsp; &amp;nbsp; &quot;master_rating_ranking&quot;: 0,&lt;/div&gt;&lt;div style=&quot;font-size: 7px;&quot;&gt;&amp;nbsp; &amp;nbsp; &amp;nbsp; &amp;nbsp; &amp;nbsp; &quot;player&quot;: {&lt;/div&gt;&lt;div style=&quot;font-size: 7px;&quot;&gt;&amp;nbsp; &amp;nbsp; &amp;nbsp; &amp;nbsp; &amp;nbsp; &amp;nbsp; &quot;fighter_id&quot;: &quot;Fluffypanda&quot;,&lt;/div&gt;&lt;div style=&quot;font-size: 7px;&quot;&gt;&amp;nbsp; &amp;nbsp; &amp;nbsp; &amp;nbsp; &amp;nbsp; &amp;nbsp; &quot;platform_id&quot;: 2,&lt;/div&gt;&lt;div style=&quot;font-size: 7px;&quot;&gt;&amp;nbsp; &amp;nbsp; &amp;nbsp; &amp;nbsp; &amp;nbsp; &amp;nbsp; &quot;short_id&quot;: 3106646257,&lt;/div&gt;&lt;div style=&quot;font-size: 7px;&quot;&gt;&amp;nbsp; &amp;nbsp; &amp;nbsp; &amp;nbsp; &amp;nbsp; &amp;nbsp; &quot;platform_name&quot;: &quot;PlayStation&quot;,&lt;/div&gt;&lt;div style=&quot;font-size: 7px;&quot;&gt;&amp;nbsp; &amp;nbsp; &amp;nbsp; &amp;nbsp; &amp;nbsp; &amp;nbsp; &quot;platform_tool_name&quot;: &quot;playstation&quot;&lt;/div&gt;&lt;div style=&quot;font-size: 7px;&quot;&gt;&amp;nbsp; &amp;nbsp; &amp;nbsp; &amp;nbsp; &amp;nbsp; },&lt;/div&gt;&lt;div style=&quot;font-size: 7px;&quot;&gt;&amp;nbsp; &amp;nbsp; &amp;nbsp; &amp;nbsp; &amp;nbsp; &quot;playing_character_id&quot;: 12,&lt;/div&gt;&lt;div style=&quot;font-size: 7px;&quot;&gt;&amp;nbsp; &amp;nbsp; &amp;nbsp; &amp;nbsp; &amp;nbsp; &quot;round_results&quot;: [&lt;/div&gt;&lt;div style=&quot;font-size: 7px;&quot;&gt;&amp;nbsp; &amp;nbsp; &amp;nbsp; &amp;nbsp; &amp;nbsp; &amp;nbsp; 0,&lt;/div&gt;&lt;div style=&quot;font-size: 7px;&quot;&gt;&amp;nbsp; &amp;nbsp; &amp;nbsp; &amp;nbsp; &amp;nbsp; &amp;nbsp; 1,&lt;/div&gt;&lt;div style=&quot;font-size: 7px;&quot;&gt;&amp;nbsp; &amp;nbsp; &amp;nbsp; &amp;nbsp; &amp;nbsp; &amp;nbsp; 2&lt;/div&gt;&lt;div style=&quot;font-size: 7px;&quot;&gt;&amp;nbsp; &amp;nbsp; &amp;nbsp; &amp;nbsp; &amp;nbsp; ],&lt;/div&gt;&lt;div style=&quot;font-size: 7px;&quot;&gt;&amp;nbsp; &amp;nbsp; &amp;nbsp; &amp;nbsp; &amp;nbsp; &quot;title_plate&quot;: 10001,&lt;/div&gt;&lt;div style=&quot;font-size: 7px;&quot;&gt;&amp;nbsp; &amp;nbsp; &amp;nbsp; &amp;nbsp; &amp;nbsp; &quot;character_name&quot;: &quot;リリー&quot;,&lt;/div&gt;&lt;div style=&quot;font-size: 7px;&quot;&gt;&amp;nbsp; &amp;nbsp; &amp;nbsp; &amp;nbsp; &amp;nbsp; &quot;character_tool_name&quot;: &quot;lily&quot;,&lt;/div&gt;&lt;div style=&quot;font-size: 7px;&quot;&gt;&amp;nbsp; &amp;nbsp; &amp;nbsp; &amp;nbsp; &amp;nbsp; &quot;playing_character_name&quot;: &quot;リリー&quot;,&lt;/div&gt;&lt;div style=&quot;font-size: 7px;&quot;&gt;&amp;nbsp; &amp;nbsp; &amp;nbsp; &amp;nbsp; &amp;nbsp; &quot;playing_character_tool_name&quot;: &quot;lily&quot;,&lt;/div&gt;&lt;div style=&quot;font-size: 7px;&quot;&gt;&amp;nbsp; &amp;nbsp; &amp;nbsp; &amp;nbsp; &amp;nbsp; &quot;title_data&quot;: {&lt;/div&gt;&lt;div style=&quot;font-size: 7px;&quot;&gt;&amp;nbsp; &amp;nbsp; &amp;nbsp; &amp;nbsp; &amp;nbsp; &amp;nbsp; &quot;title_data_id&quot;: 10001,&lt;/div&gt;&lt;div style=&quot;font-size: 7px;&quot;&gt;&amp;nbsp; &amp;nbsp; &amp;nbsp; &amp;nbsp; &amp;nbsp; &amp;nbsp; &quot;title_data_grade_id&quot;: 1,&lt;/div&gt;&lt;div style=&quot;font-size: 7px;&quot;&gt;&amp;nbsp; &amp;nbsp; &amp;nbsp; &amp;nbsp; &amp;nbsp; &amp;nbsp; &quot;title_data_grade_name&quot;: &quot;銅&quot;,&lt;/div&gt;&lt;div style=&quot;font-size: 7px;&quot;&gt;&amp;nbsp; &amp;nbsp; &amp;nbsp; &amp;nbsp; &amp;nbsp; &amp;nbsp; &quot;title_data_plate_id&quot;: 122,&lt;/div&gt;&lt;div style=&quot;font-size: 7px;&quot;&gt;&amp;nbsp; &amp;nbsp; &amp;nbsp; &amp;nbsp; &amp;nbsp; &amp;nbsp; &quot;title_data_plate_name&quot;: &quot;122-8bb65d811510d0e60b605476864239&quot;,&lt;/div&gt;&lt;div style=&quot;font-size: 7px;&quot;&gt;&amp;nbsp; &amp;nbsp; &amp;nbsp; &amp;nbsp; &amp;nbsp; &amp;nbsp; &quot;title_data_val&quot;: &quot;よろしくお願いします&quot;&lt;/div&gt;&lt;div style=&quot;font-size: 7px;&quot;&gt;&amp;nbsp; &amp;nbsp; &amp;nbsp; &amp;nbsp; &amp;nbsp; },&lt;/div&gt;&lt;div style=&quot;font-size: 7px;&quot;&gt;&amp;nbsp; &amp;nbsp; &amp;nbsp; &amp;nbsp; &amp;nbsp; &quot;battle_input_type_name&quot;: &quot;[t]モダン&quot;&lt;/div&gt;&lt;div style=&quot;font-size: 7px;&quot;&gt;&amp;nbsp; &amp;nbsp; &amp;nbsp; &amp;nbsp; },&lt;/div&gt;&lt;div style=&quot;font-size: 7px;&quot;&gt;&lt;font color=&quot;#ff0000&quot;&gt;&amp;nbsp; &amp;nbsp; &amp;nbsp; &amp;nbsp; &quot;replay_battle_sub_type&quot;: 1,&lt;/font&gt;&lt;/div&gt;&lt;div style=&quot;font-size: 7px;&quot;&gt;&lt;font color=&quot;#ff0000&quot;&gt;&amp;nbsp; &amp;nbsp; &amp;nbsp; &amp;nbsp; &quot;replay_battle_type&quot;: 1,&lt;/font&gt;&lt;/div&gt;&lt;div style=&quot;font-size: 7px;&quot;&gt;&lt;font color=&quot;#ff0000&quot;&gt;&amp;nbsp; &amp;nbsp; &amp;nbsp; &amp;nbsp; &quot;replay_id&quot;: &quot;C446A6PY6&quot;,&lt;/font&gt;&lt;/div&gt;&lt;div style=&quot;font-size: 7px;&quot;&gt;&lt;font color=&quot;#ff0000&quot;&gt;&amp;nbsp; &amp;nbsp; &amp;nbsp; &amp;nbsp; &quot;uploaded_at&quot;: 1698299683,&lt;/font&gt;&lt;/div&gt;&lt;div style=&quot;font-size: 7px;&quot;&gt;&lt;font color=&quot;#ff0000&quot;&gt;&amp;nbsp; &amp;nbsp; &amp;nbsp; &amp;nbsp; &quot;views&quot;: 0,&lt;/font&gt;&lt;/div&gt;&lt;div style=&quot;font-size: 7px;&quot;&gt;&lt;font color=&quot;#ff0000&quot;&gt;&amp;nbsp; &amp;nbsp; &amp;nbsp; &amp;nbsp; &quot;replay_battle_type_name&quot;: &quot;RANKED MATCH&quot;,&lt;/font&gt;&lt;/div&gt;&lt;div style=&quot;font-size: 7px;&quot;&gt;&lt;font color=&quot;#ff0000&quot;&gt;&amp;nbsp; &amp;nbsp; &amp;nbsp; &amp;nbsp; &quot;replay_battle_sub_type_name&quot;: &quot;[t]サブタイプなし&quot;&lt;/font&gt;&lt;/div&gt;&lt;div style=&quot;font-size: 7px;&quot;&gt;&amp;nbsp; &amp;nbsp; &amp;nbsp; }&lt;/div&gt;" style="text;html=1;strokeColor=#d6b656;fillColor=#fff2cc;align=left;verticalAlign=top;whiteSpace=wrap;rounded=0;fontSize=7;" parent="1" vertex="1">
          <mxGeometry x="501" y="210" width="270" height="680" as="geometry" />
        </mxCell>
        <mxCell id="MRrxhiVudbIoeR27RYw8-9" value="&lt;div style=&quot;font-size: 7px;&quot;&gt;&amp;nbsp; &amp;nbsp; &amp;nbsp; {&lt;/div&gt;&lt;div style=&quot;font-size: 7px;&quot;&gt;&lt;font color=&quot;#ff0000&quot;&gt;&amp;nbsp; &amp;nbsp; &amp;nbsp; &amp;nbsp; &quot;battle_version&quot;: 10002000,&lt;/font&gt;&lt;/div&gt;&lt;div style=&quot;font-size: 7px;&quot;&gt;&lt;font color=&quot;#ff0000&quot;&gt;&amp;nbsp; &amp;nbsp; &amp;nbsp; &amp;nbsp; &quot;is_registered&quot;: false,&lt;/font&gt;&lt;/div&gt;&lt;div style=&quot;font-size: 7px;&quot;&gt;&amp;nbsp; &amp;nbsp; &amp;nbsp; &amp;nbsp; &quot;player1_info&quot;: {&lt;/div&gt;&lt;div style=&quot;font-size: 7px;&quot;&gt;&amp;nbsp; &amp;nbsp; &amp;nbsp; &amp;nbsp; &amp;nbsp; &quot;allow_cross_play&quot;: true,&lt;/div&gt;&lt;div style=&quot;font-size: 7px;&quot;&gt;&amp;nbsp; &amp;nbsp; &amp;nbsp; &amp;nbsp; &amp;nbsp; &quot;battle_input_type&quot;: 0,&lt;/div&gt;&lt;div style=&quot;font-size: 7px;&quot;&gt;&amp;nbsp; &amp;nbsp; &amp;nbsp; &amp;nbsp; &amp;nbsp; &quot;character_id&quot;: 2,&lt;/div&gt;&lt;div style=&quot;font-size: 7px;&quot;&gt;&amp;nbsp; &amp;nbsp; &amp;nbsp; &amp;nbsp; &amp;nbsp; &quot;home_id&quot;: 85,&lt;/div&gt;&lt;div style=&quot;font-size: 7px;&quot;&gt;&amp;nbsp; &amp;nbsp; &amp;nbsp; &amp;nbsp; &amp;nbsp; &quot;league_point&quot;: 15101,&lt;/div&gt;&lt;div style=&quot;font-size: 7px;&quot;&gt;&amp;nbsp; &amp;nbsp; &amp;nbsp; &amp;nbsp; &amp;nbsp; &quot;league_rank&quot;: 27,&lt;/div&gt;&lt;div style=&quot;font-size: 7px;&quot;&gt;&amp;nbsp; &amp;nbsp; &amp;nbsp; &amp;nbsp; &amp;nbsp; &quot;main_circle&quot;: {&lt;/div&gt;&lt;div style=&quot;font-size: 7px;&quot;&gt;&amp;nbsp; &amp;nbsp; &amp;nbsp; &amp;nbsp; &amp;nbsp; &amp;nbsp; &quot;circle_id&quot;: &quot;&quot;,&lt;/div&gt;&lt;div style=&quot;font-size: 7px;&quot;&gt;&amp;nbsp; &amp;nbsp; &amp;nbsp; &amp;nbsp; &amp;nbsp; &amp;nbsp; &quot;circle_name&quot;: &quot;&quot;,&lt;/div&gt;&lt;div style=&quot;font-size: 7px;&quot;&gt;&amp;nbsp; &amp;nbsp; &amp;nbsp; &amp;nbsp; &amp;nbsp; &amp;nbsp; &quot;data_exist&quot;: false,&lt;/div&gt;&lt;div style=&quot;font-size: 7px;&quot;&gt;&amp;nbsp; &amp;nbsp; &amp;nbsp; &amp;nbsp; &amp;nbsp; &amp;nbsp; &quot;emblem&quot;: {&lt;/div&gt;&lt;div style=&quot;font-size: 7px;&quot;&gt;&amp;nbsp; &amp;nbsp; &amp;nbsp; &amp;nbsp; &amp;nbsp; &amp;nbsp; &amp;nbsp; &quot;emblem_base&quot;: 0,&lt;/div&gt;&lt;div style=&quot;font-size: 7px;&quot;&gt;&amp;nbsp; &amp;nbsp; &amp;nbsp; &amp;nbsp; &amp;nbsp; &amp;nbsp; &amp;nbsp; &quot;emblem_base_color&quot;: 0,&lt;/div&gt;&lt;div style=&quot;font-size: 7px;&quot;&gt;&amp;nbsp; &amp;nbsp; &amp;nbsp; &amp;nbsp; &amp;nbsp; &amp;nbsp; &amp;nbsp; &quot;emblem_frame&quot;: 0,&lt;/div&gt;&lt;div style=&quot;font-size: 7px;&quot;&gt;&amp;nbsp; &amp;nbsp; &amp;nbsp; &amp;nbsp; &amp;nbsp; &amp;nbsp; &amp;nbsp; &quot;emblem_frame_color&quot;: 0,&lt;/div&gt;&lt;div style=&quot;font-size: 7px;&quot;&gt;&amp;nbsp; &amp;nbsp; &amp;nbsp; &amp;nbsp; &amp;nbsp; &amp;nbsp; &amp;nbsp; &quot;emblem_pattern&quot;: 0,&lt;/div&gt;&lt;div style=&quot;font-size: 7px;&quot;&gt;&amp;nbsp; &amp;nbsp; &amp;nbsp; &amp;nbsp; &amp;nbsp; &amp;nbsp; &amp;nbsp; &quot;emblem_pattern_color&quot;: 0,&lt;/div&gt;&lt;div style=&quot;font-size: 7px;&quot;&gt;&amp;nbsp; &amp;nbsp; &amp;nbsp; &amp;nbsp; &amp;nbsp; &amp;nbsp; &amp;nbsp; &quot;emblem_pattern_horizontal_inversion&quot;: false,&lt;/div&gt;&lt;div style=&quot;font-size: 7px;&quot;&gt;&amp;nbsp; &amp;nbsp; &amp;nbsp; &amp;nbsp; &amp;nbsp; &amp;nbsp; &amp;nbsp; &quot;emblem_pattern_vertical_inversion&quot;: false,&lt;/div&gt;&lt;div style=&quot;font-size: 7px;&quot;&gt;&amp;nbsp; &amp;nbsp; &amp;nbsp; &amp;nbsp; &amp;nbsp; &amp;nbsp; &amp;nbsp; &quot;emblem_processing&quot;: 0,&lt;/div&gt;&lt;div style=&quot;font-size: 7px;&quot;&gt;&amp;nbsp; &amp;nbsp; &amp;nbsp; &amp;nbsp; &amp;nbsp; &amp;nbsp; &amp;nbsp; &quot;emblem_symbol1&quot;: 0,&lt;/div&gt;&lt;div style=&quot;font-size: 7px;&quot;&gt;&amp;nbsp; &amp;nbsp; &amp;nbsp; &amp;nbsp; &amp;nbsp; &amp;nbsp; &amp;nbsp; &quot;emblem_symbol1_clipping&quot;: false,&lt;/div&gt;&lt;div style=&quot;font-size: 7px;&quot;&gt;&amp;nbsp; &amp;nbsp; &amp;nbsp; &amp;nbsp; &amp;nbsp; &amp;nbsp; &amp;nbsp; &quot;emblem_symbol1_color&quot;: 0,&lt;/div&gt;&lt;div style=&quot;font-size: 7px;&quot;&gt;&amp;nbsp; &amp;nbsp; &amp;nbsp; &amp;nbsp; &amp;nbsp; &amp;nbsp; &amp;nbsp; &quot;emblem_symbol1_horizontal_inversion&quot;: false,&lt;/div&gt;&lt;div style=&quot;font-size: 7px;&quot;&gt;&amp;nbsp; &amp;nbsp; &amp;nbsp; &amp;nbsp; &amp;nbsp; &amp;nbsp; &amp;nbsp; &quot;emblem_symbol1_vertical_inversion&quot;: false,&lt;/div&gt;&lt;div style=&quot;font-size: 7px;&quot;&gt;&amp;nbsp; &amp;nbsp; &amp;nbsp; &amp;nbsp; &amp;nbsp; &amp;nbsp; &amp;nbsp; &quot;emblem_symbol2&quot;: 0,&lt;/div&gt;&lt;div style=&quot;font-size: 7px;&quot;&gt;&amp;nbsp; &amp;nbsp; &amp;nbsp; &amp;nbsp; &amp;nbsp; &amp;nbsp; &amp;nbsp; &quot;emblem_symbol2_clipping&quot;: false,&lt;/div&gt;&lt;div style=&quot;font-size: 7px;&quot;&gt;&amp;nbsp; &amp;nbsp; &amp;nbsp; &amp;nbsp; &amp;nbsp; &amp;nbsp; &amp;nbsp; &quot;emblem_symbol2_color&quot;: 0,&lt;/div&gt;&lt;div style=&quot;font-size: 7px;&quot;&gt;&amp;nbsp; &amp;nbsp; &amp;nbsp; &amp;nbsp; &amp;nbsp; &amp;nbsp; &amp;nbsp; &quot;emblem_symbol2_horizontal_inversion&quot;: false,&lt;/div&gt;&lt;div style=&quot;font-size: 7px;&quot;&gt;&amp;nbsp; &amp;nbsp; &amp;nbsp; &amp;nbsp; &amp;nbsp; &amp;nbsp; &amp;nbsp; &quot;emblem_symbol2_vertical_inversion&quot;: false&lt;/div&gt;&lt;div style=&quot;font-size: 7px;&quot;&gt;&amp;nbsp; &amp;nbsp; &amp;nbsp; &amp;nbsp; &amp;nbsp; &amp;nbsp; },&lt;/div&gt;&lt;div style=&quot;font-size: 7px;&quot;&gt;&amp;nbsp; &amp;nbsp; &amp;nbsp; &amp;nbsp; &amp;nbsp; &amp;nbsp; &quot;leader&quot;: {&lt;/div&gt;&lt;div style=&quot;font-size: 7px;&quot;&gt;&amp;nbsp; &amp;nbsp; &amp;nbsp; &amp;nbsp; &amp;nbsp; &amp;nbsp; &amp;nbsp; &quot;fighter_id&quot;: &quot;&quot;,&lt;/div&gt;&lt;div style=&quot;font-size: 7px;&quot;&gt;&amp;nbsp; &amp;nbsp; &amp;nbsp; &amp;nbsp; &amp;nbsp; &amp;nbsp; &amp;nbsp; &quot;platform_id&quot;: 0,&lt;/div&gt;&lt;div style=&quot;font-size: 7px;&quot;&gt;&amp;nbsp; &amp;nbsp; &amp;nbsp; &amp;nbsp; &amp;nbsp; &amp;nbsp; &amp;nbsp; &quot;short_id&quot;: 0&lt;/div&gt;&lt;div style=&quot;font-size: 7px;&quot;&gt;&amp;nbsp; &amp;nbsp; &amp;nbsp; &amp;nbsp; &amp;nbsp; &amp;nbsp; }&lt;/div&gt;&lt;div style=&quot;font-size: 7px;&quot;&gt;&amp;nbsp; &amp;nbsp; &amp;nbsp; &amp;nbsp; &amp;nbsp; },&lt;/div&gt;&lt;div style=&quot;font-size: 7px;&quot;&gt;&amp;nbsp; &amp;nbsp; &amp;nbsp; &amp;nbsp; &amp;nbsp; &quot;master_league&quot;: 0,&lt;/div&gt;&lt;div style=&quot;font-size: 7px;&quot;&gt;&amp;nbsp; &amp;nbsp; &amp;nbsp; &amp;nbsp; &amp;nbsp; &quot;master_rating&quot;: 0,&lt;/div&gt;&lt;div style=&quot;font-size: 7px;&quot;&gt;&amp;nbsp; &amp;nbsp; &amp;nbsp; &amp;nbsp; &amp;nbsp; &quot;master_rating_ranking&quot;: 0,&lt;/div&gt;&lt;div style=&quot;font-size: 7px;&quot;&gt;&amp;nbsp; &amp;nbsp; &amp;nbsp; &amp;nbsp; &amp;nbsp; &quot;player&quot;: {&lt;/div&gt;&lt;div style=&quot;font-size: 7px;&quot;&gt;&amp;nbsp; &amp;nbsp; &amp;nbsp; &amp;nbsp; &amp;nbsp; &amp;nbsp; &quot;fighter_id&quot;: &quot;しゃにむに&quot;,&lt;/div&gt;&lt;div style=&quot;font-size: 7px;&quot;&gt;&amp;nbsp; &amp;nbsp; &amp;nbsp; &amp;nbsp; &amp;nbsp; &amp;nbsp; &quot;platform_id&quot;: 5,&lt;/div&gt;&lt;div style=&quot;font-size: 7px;&quot;&gt;&amp;nbsp; &amp;nbsp; &amp;nbsp; &amp;nbsp; &amp;nbsp; &amp;nbsp; &quot;short_id&quot;: 3582778214,&lt;/div&gt;&lt;div style=&quot;font-size: 7px;&quot;&gt;&amp;nbsp; &amp;nbsp; &amp;nbsp; &amp;nbsp; &amp;nbsp; &amp;nbsp; &quot;platform_name&quot;: &quot;CrossPlatform&quot;,&lt;/div&gt;&lt;div style=&quot;font-size: 7px;&quot;&gt;&amp;nbsp; &amp;nbsp; &amp;nbsp; &amp;nbsp; &amp;nbsp; &amp;nbsp; &quot;platform_tool_name&quot;: &quot;cross&quot;&lt;/div&gt;&lt;div style=&quot;font-size: 7px;&quot;&gt;&amp;nbsp; &amp;nbsp; &amp;nbsp; &amp;nbsp; &amp;nbsp; },&lt;/div&gt;&lt;div style=&quot;font-size: 7px;&quot;&gt;&amp;nbsp; &amp;nbsp; &amp;nbsp; &amp;nbsp; &amp;nbsp; &quot;playing_character_id&quot;: 2,&lt;/div&gt;&lt;div style=&quot;font-size: 7px;&quot;&gt;&amp;nbsp; &amp;nbsp; &amp;nbsp; &amp;nbsp; &amp;nbsp; &quot;round_results&quot;: [&lt;/div&gt;&lt;div style=&quot;font-size: 7px;&quot;&gt;&amp;nbsp; &amp;nbsp; &amp;nbsp; &amp;nbsp; &amp;nbsp; &amp;nbsp; 1,&lt;/div&gt;&lt;div style=&quot;font-size: 7px;&quot;&gt;&amp;nbsp; &amp;nbsp; &amp;nbsp; &amp;nbsp; &amp;nbsp; &amp;nbsp; 0,&lt;/div&gt;&lt;div style=&quot;font-size: 7px;&quot;&gt;&amp;nbsp; &amp;nbsp; &amp;nbsp; &amp;nbsp; &amp;nbsp; &amp;nbsp; 0&lt;/div&gt;&lt;div style=&quot;font-size: 7px;&quot;&gt;&amp;nbsp; &amp;nbsp; &amp;nbsp; &amp;nbsp; &amp;nbsp; ],&lt;/div&gt;&lt;div style=&quot;font-size: 7px;&quot;&gt;&amp;nbsp; &amp;nbsp; &amp;nbsp; &amp;nbsp; &amp;nbsp; &quot;title_plate&quot;: 10001,&lt;/div&gt;&lt;div style=&quot;font-size: 7px;&quot;&gt;&amp;nbsp; &amp;nbsp; &amp;nbsp; &amp;nbsp; &amp;nbsp; &quot;character_name&quot;: &quot;ルーク&quot;,&lt;/div&gt;&lt;div style=&quot;font-size: 7px;&quot;&gt;&amp;nbsp; &amp;nbsp; &amp;nbsp; &amp;nbsp; &amp;nbsp; &quot;character_tool_name&quot;: &quot;luke&quot;,&lt;/div&gt;&lt;div style=&quot;font-size: 7px;&quot;&gt;&amp;nbsp; &amp;nbsp; &amp;nbsp; &amp;nbsp; &amp;nbsp; &quot;playing_character_name&quot;: &quot;ルーク&quot;,&lt;/div&gt;&lt;div style=&quot;font-size: 7px;&quot;&gt;&amp;nbsp; &amp;nbsp; &amp;nbsp; &amp;nbsp; &amp;nbsp; &quot;playing_character_tool_name&quot;: &quot;luke&quot;,&lt;/div&gt;&lt;div style=&quot;font-size: 7px;&quot;&gt;&amp;nbsp; &amp;nbsp; &amp;nbsp; &amp;nbsp; &amp;nbsp; &quot;title_data&quot;: {&lt;/div&gt;&lt;div style=&quot;font-size: 7px;&quot;&gt;&amp;nbsp; &amp;nbsp; &amp;nbsp; &amp;nbsp; &amp;nbsp; &amp;nbsp; &quot;title_data_id&quot;: 10001,&lt;/div&gt;&lt;div style=&quot;font-size: 7px;&quot;&gt;&amp;nbsp; &amp;nbsp; &amp;nbsp; &amp;nbsp; &amp;nbsp; &amp;nbsp; &quot;title_data_grade_id&quot;: 1,&lt;/div&gt;&lt;div style=&quot;font-size: 7px;&quot;&gt;&amp;nbsp; &amp;nbsp; &amp;nbsp; &amp;nbsp; &amp;nbsp; &amp;nbsp; &quot;title_data_grade_name&quot;: &quot;銅&quot;,&lt;/div&gt;&lt;div style=&quot;font-size: 7px;&quot;&gt;&amp;nbsp; &amp;nbsp; &amp;nbsp; &amp;nbsp; &amp;nbsp; &amp;nbsp; &quot;title_data_plate_id&quot;: 122,&lt;/div&gt;&lt;div style=&quot;font-size: 7px;&quot;&gt;&amp;nbsp; &amp;nbsp; &amp;nbsp; &amp;nbsp; &amp;nbsp; &amp;nbsp; &quot;title_data_plate_name&quot;: &quot;122-8bb65d811510d0e60b605476864239&quot;,&lt;/div&gt;&lt;div style=&quot;font-size: 7px;&quot;&gt;&amp;nbsp; &amp;nbsp; &amp;nbsp; &amp;nbsp; &amp;nbsp; &amp;nbsp; &quot;title_data_val&quot;: &quot;よろしくお願いします&quot;&lt;/div&gt;&lt;div style=&quot;font-size: 7px;&quot;&gt;&amp;nbsp; &amp;nbsp; &amp;nbsp; &amp;nbsp; &amp;nbsp; },&lt;/div&gt;&lt;div style=&quot;font-size: 7px;&quot;&gt;&amp;nbsp; &amp;nbsp; &amp;nbsp; &amp;nbsp; &amp;nbsp; &quot;battle_input_type_name&quot;: &quot;[t]クラシック&quot;&lt;/div&gt;&lt;div style=&quot;font-size: 7px;&quot;&gt;&amp;nbsp; &amp;nbsp; &amp;nbsp; &amp;nbsp; },&lt;/div&gt;" style="text;html=1;strokeColor=#d6b656;fillColor=#fff2cc;align=left;verticalAlign=top;whiteSpace=wrap;rounded=0;fontSize=7;" parent="1" vertex="1">
          <mxGeometry x="220" y="210" width="270" height="680" as="geometry" />
        </mxCell>
        <mxCell id="R9ICjo6Tj-ol_J4_DQli-1" value="User" style="swimlane;fontStyle=0;childLayout=stackLayout;horizontal=1;startSize=30;horizontalStack=0;resizeParent=1;resizeParentMax=0;resizeLast=0;collapsible=1;marginBottom=0;whiteSpace=wrap;html=1;" parent="1" vertex="1">
          <mxGeometry x="55" y="240" width="140" height="120" as="geometry">
            <mxRectangle x="55" y="240" width="70" height="30" as="alternateBounds" />
          </mxGeometry>
        </mxCell>
        <mxCell id="R9ICjo6Tj-ol_J4_DQli-2" value="[P] UserCode" style="text;strokeColor=none;fillColor=none;align=left;verticalAlign=middle;spacingLeft=4;spacingRight=4;overflow=hidden;points=[[0,0.5],[1,0.5]];portConstraint=eastwest;rotatable=0;whiteSpace=wrap;html=1;" parent="R9ICjo6Tj-ol_J4_DQli-1" vertex="1">
          <mxGeometry y="30" width="140" height="30" as="geometry" />
        </mxCell>
        <mxCell id="R9ICjo6Tj-ol_J4_DQli-4" value="Play" style="text;strokeColor=#b85450;fillColor=#f8cecc;align=left;verticalAlign=middle;spacingLeft=4;spacingRight=4;overflow=hidden;points=[[0,0.5],[1,0.5]];portConstraint=eastwest;rotatable=0;whiteSpace=wrap;html=1;" parent="R9ICjo6Tj-ol_J4_DQli-1" vertex="1">
          <mxGeometry y="60" width="140" height="30" as="geometry" />
        </mxCell>
        <mxCell id="R9ICjo6Tj-ol_J4_DQli-7" value="CurrentLP" style="text;align=left;verticalAlign=middle;spacingLeft=4;spacingRight=4;overflow=hidden;points=[[0,0.5],[1,0.5]];portConstraint=eastwest;rotatable=0;whiteSpace=wrap;html=1;" parent="R9ICjo6Tj-ol_J4_DQli-1" vertex="1">
          <mxGeometry y="90" width="140" height="30" as="geometry" />
        </mxCell>
        <mxCell id="R9ICjo6Tj-ol_J4_DQli-8" value="当面の目的に照らした場合、むしろPlayの保管は不要 → カット" style="text;html=1;strokeColor=#6c8ebf;fillColor=#dae8fc;align=left;verticalAlign=middle;whiteSpace=wrap;rounded=0;" parent="1" vertex="1">
          <mxGeometry x="45" y="370" width="160" height="60" as="geometry" />
        </mxCell>
      </root>
    </mxGraphModel>
  </diagram>
</mxfile>
